# This file uses centimeters as units for non-parametric coordinates.

mtllib tree_dead.mtl
g default
v 1.292570 0.213865 -0.537632
v 0.684312 0.213865 -1.325100
v 0.000000 0.213865 -1.613332
v -0.680931 0.213865 -1.325100
v -1.179407 0.213865 -0.537632
v -1.361862 0.213865 0.292725
v -1.122115 0.213865 0.852848
v -0.302569 2.123119 0.898337
v -0.053944 3.503915 0.666797
v 0.472581 1.822656 0.862064
v 1.263381 0.213865 1.140739
v 1.475025 0.213865 0.292725
v 0.252198 7.916673 -0.078505
v 0.091957 7.989950 -0.164202
v -0.037074 8.192889 -0.189604
v -0.160134 8.192889 -0.164202
v -0.235168 8.192889 -0.094802
v -0.251655 8.192889 0.047401
v -0.160134 8.192889 0.164202
v -0.037074 8.192889 0.189604
v 0.091957 7.989950 0.164202
v 0.227634 7.909301 0.047401
v -1.000278 0.213865 0.776802
v 0.416299 1.799089 0.723173
v 1.171604 0.213865 0.902487
v 0.150068 3.421616 0.608622
v -0.073030 5.612309 0.372227
v 0.028006 5.672780 0.400731
v 0.209859 5.668768 0.326097
v 0.349676 5.683396 0.039380
v 0.392510 5.687688 -0.206695
v 0.263667 5.673513 -0.323484
v 0.051292 5.643623 -0.417393
v -0.144539 5.620005 -0.324152
v -0.223537 5.605546 -0.201600
v -0.263756 5.601529 0.037227
v 0.002631 3.472546 0.595454
v 0.071430 3.421616 0.536929
v 0.023797 5.411485 0.394320
v 0.301095 3.472460 0.546460
v 0.549059 3.551260 0.061922
v 0.619576 3.639041 -0.262292
v 0.438748 3.664725 -0.456360
v 0.045743 3.388762 -0.532833
v -0.240913 3.431593 -0.411128
v -0.422948 3.495240 -0.251215
v -0.482079 3.509811 0.055078
v -0.177675 3.510038 0.563890
v -0.177692 2.416977 0.836974
v 0.453503 2.656664 0.620965
v 0.698595 2.717342 0.149099
v 0.748485 2.723132 -0.291408
v 0.519276 2.709259 -0.514971
v -0.003100 2.672535 -0.605732
v -0.415088 2.583215 -0.495566
v -0.679849 2.482036 -0.267799
v -0.704686 2.448995 0.126770
v 0.310600 2.617400 0.689399
v 0.039367 2.516833 0.477834
v -0.132227 2.412970 0.741374
v -0.398264 2.221025 0.799421
v -0.269324 2.121154 0.819036
v -0.162426 1.580826 1.037643
v -0.140379 1.580826 0.974842
v -0.025929 1.580828 1.008444
v -0.040620 1.580827 1.068515
v -1.195584 0.213865 0.850928
v 0.707549 1.788098 0.796311
v 1.348473 0.213865 1.135958
v -0.683611 1.161156 0.852680
v -0.726495 1.159157 0.819390
v -0.913814 1.367730 0.217935
v -0.818083 1.466738 -0.216969
v -0.476324 1.290404 -0.614369
v -0.002999 1.409673 -0.820922
v 0.578020 1.638697 -0.714375
v 0.844966 1.804194 -0.345014
v 0.914870 1.784038 0.198120
v 0.653361 1.619890 0.858790
v 0.542600 1.521235 0.750204
v -0.644599 1.145676 0.786856
v -0.581380 0.382280 1.200992
v -0.482871 0.274978 1.310565
v -0.571242 0.377890 1.137619
v -0.468062 0.274978 1.230683
v 0.059922 0.213865 0.354782
v -0.009901 1.275955 0.399523
v 0.018976 1.881428 0.396898
v 0.562776 0.714979 1.197281
v 0.508172 0.714978 1.120390
v 0.456924 0.714982 1.260792
v 0.407450 0.714982 1.173907
v -0.091541 9.075592 -0.038281
v -0.114180 9.105040 -0.034727
v -0.153163 9.120599 -0.006586
v -0.114180 9.105040 0.011227
v -0.091541 9.075592 0.014782
v -0.040400 8.670907 -0.089313
v -0.120264 8.670907 -0.079058
v -0.180635 8.670907 -0.046323
v -0.191847 8.670907 0.023222
v -0.120264 8.670907 0.079058
v -0.040400 8.670907 0.089313
v 0.524975 1.634959 0.918182
v 0.467453 1.586656 0.790250
v 0.259330 2.580024 0.585546
vt 0.711768 0.334264
vt 0.738255 0.338036
vt 0.701613 0.518956
vt 0.687084 0.520051
vt 0.785356 0.316609
vt 0.721016 0.517088
vt 0.814748 0.323374
vt 0.739875 0.516348
vt 0.836530 0.330642
vt 0.752409 0.516639
vt 0.476488 0.367904
vt 0.579509 0.541865
vt 0.521751 0.349928
vt 0.610545 0.526841
vt 0.534293 0.344455
vt 0.621891 0.527875
vt 0.151790 0.678560
vt 0.165421 0.671337
vt 0.166569 0.958345
vt 0.621508 0.330642
vt 0.677971 0.328825
vt 0.665933 0.521898
vt 0.638659 0.524399
vt 0.174907 0.175647
vt 0.164237 0.353003
vt 0.054948 0.324286
vt 0.024828 0.175647
vt 0.467761 0.936393
vt 0.474890 0.937455
vt 0.623454 0.841817
vt 0.461431 0.789061
vt 0.470952 0.752339
vt 0.521842 0.759929
vt 0.697232 0.749133
vt 0.683902 0.149636
vt 0.615358 0.145392
vt 0.629834 0.005414
vt 0.716484 0.005414
vt 0.761076 0.005414
vt 0.740920 0.154811
vt 0.819835 0.005414
vt 0.791805 0.144875
vt 0.872455 0.005414
vt 0.859877 0.137510
vt 0.927213 0.005414
vt 0.917019 0.143954
vt 0.999273 0.005414
vt 0.963696 0.143954
vt 0.411136 0.005532
vt 0.414271 0.144427
vt 0.481954 0.126491
vt 0.463898 0.005532
vt 0.470658 0.005532
vt 0.462212 0.660660
vt 0.365174 0.175647
vt 0.604380 0.127469
vt 0.912178 0.918680
vt 0.327773 0.175647
vt 0.669770 0.723715
vt 0.709141 0.750810
vt 0.595368 0.758326
vt 0.608284 0.755518
vt 0.621684 0.752992
vt 0.658427 0.725011
vt 0.181506 0.671173
vt 0.160360 0.539640
vt 0.194902 0.551772
vt 0.210201 0.559716
vt 0.625983 0.238424
vt 0.678900 0.241167
vt 0.724261 0.241390
vt 0.757615 0.244865
vt 0.811871 0.254107
vt 0.857535 0.255287
vt 0.393235 0.282693
vt 0.427776 0.265044
vt 0.905368 0.353975
vt 0.904231 0.369339
vt 0.864066 0.369339
vt 0.535725 0.171357
vt 0.865024 0.677087
vt 0.083366 0.490946
vt 0.165295 0.455266
vt 0.246615 0.447407
vt 0.261822 0.462900
vt 0.493019 0.229697
vt 0.516207 0.246914
vt 0.506608 0.220591
vt 0.287425 0.462165
vt 0.905948 0.742447
vt 0.601899 0.043350
vt 0.587378 0.043033
vt 0.422362 0.426977
vt 0.313466 0.476240
vt 0.388515 0.496544
vt 0.363103 0.496544
vt 0.310455 0.496544
vt 0.932230 0.925946
vt 0.702102 0.796625
vt 0.493645 0.869671
vt 0.610323 0.801453
vt 0.616750 0.799800
vt 0.625221 0.798668
vt 0.465933 0.865542
vt 0.476300 0.931775
vt 0.629326 0.837073
vt 0.592034 0.131661
vt 0.921995 0.717472
vt 0.887987 0.737132
vt 0.591640 0.150081
vt 0.287604 0.405099
vt 0.526433 0.050920
vt 0.542252 0.041821
vt 0.952799 0.572754
vt 0.487268 0.126491
vt 0.620337 0.005414
vt 0.523703 0.170962
vt 0.843603 0.369339
vt 0.102121 0.535872
vt 0.611139 0.237343
vt 0.138080 0.683125
vt 0.167463 0.997194
vt 0.603982 0.330642
vt 0.007700 0.175647
vt 0.285362 0.440538
vt 0.927797 0.736465
vt 0.429067 0.439984
vt 0.946197 0.969142
vt 0.898716 0.725168
vt 0.291644 0.495454
vt 0.360229 0.476240
vt 0.877329 0.929573
vt 0.262959 0.392956
vt 0.862774 0.353975
vt 0.926166 0.369339
vt 0.291260 0.984950
vt 0.043506 0.326230
vt 0.448368 0.677736
vt 0.315750 0.978303
vt 0.113899 0.526826
vt 0.829284 0.670432
vt 0.924146 0.579840
vt 0.632789 0.798347
vt 0.468068 0.930548
vt 0.694458 0.795837
vt 0.695554 0.834977
vt 0.627301 0.839935
vt 0.632760 0.751879
vt 0.469554 0.943317
vt 0.697423 0.838005
vt 0.520246 0.797826
vt 0.492782 0.730551
vt 0.512679 0.730551
vt 0.643233 0.732896
vt 0.686770 0.729256
vt 0.708573 0.797661
vt 0.701712 0.840201
vt 0.718728 0.752648
vt 0.892474 0.255265
vt 0.452967 0.379757
vt 0.561529 0.552549
vt 0.370983 0.161053
vt 0.331635 0.005532
vn 0.972223 0.126702 -0.196796
vn 0.424762 0.086656 -0.901148
vn 0.459523 0.088112 -0.883784
vn 0.957084 0.101379 -0.271502
vn -0.074189 0.082076 -0.993861
vn -0.027626 0.070796 -0.997108
vn -0.519103 0.101224 -0.848696
vn -0.546926 0.055694 -0.835326
vn -0.899793 0.140319 -0.413137
vn -0.921479 0.056827 -0.384248
vn -0.946280 0.157785 0.282238
vn -0.961416 0.061488 0.268137
vn -0.795991 0.156036 0.584852
vn -0.772228 0.071607 0.631298
vn -0.497778 0.160086 0.852402
vn 0.070179 0.097882 0.992720
vn 0.808353 0.004123 0.588684
vn 0.138739 -0.028090 0.989931
vn 0.052018 0.050384 0.997374
vn 0.754333 0.132960 0.642886
vn 0.925497 0.123124 0.358184
vn 0.922930 0.078721 0.376833
vn 0.732645 0.088423 0.674843
vn -0.089475 -0.102926 0.990656
vn -0.007294 -0.121311 0.992588
vn 0.760313 -0.217974 0.611892
vn 0.465312 -0.114290 0.877737
vn 0.698752 0.715364 0.000000
vn 0.711464 0.702722 0.000000
vn 0.370696 0.928754 0.000000
vn 0.972946 0.231034 0.000000
vn 0.785465 0.618854 0.007997
vn 0.775623 0.631129 0.009237
vn 0.972946 0.231034 0.000000
vn 0.945374 0.317066 0.075738
vn 0.866094 0.354850 0.352083
vn 0.874538 0.382779 0.297764
vn 0.936603 0.348461 0.036733
vn 0.865903 0.309452 -0.393003
vn 0.890341 0.267285 -0.368580
vn 0.474934 0.408442 -0.779495
vn 0.504439 0.314133 -0.804277
vn -0.083832 0.521963 -0.848839
vn -0.092300 0.394056 -0.914440
vn -0.532360 0.495087 -0.686645
vn -0.573433 0.377606 -0.727041
vn -0.825444 0.392018 -0.406157
vn -0.870240 0.280223 -0.405163
vn -0.925883 0.371943 0.066331
vn -0.942563 0.305981 0.133979
vn -0.844536 0.316261 0.432132
vn -0.844369 0.386652 0.370865
vn -0.288599 0.154228 0.944947
vn -0.621843 0.222048 0.751003
vn 0.622857 -0.267113 0.735323
vn 0.622857 -0.267113 0.735323
vn -0.793844 -0.275756 0.542007
vn -0.793843 -0.275756 0.542007
vn -0.599585 -0.149134 0.786293
vn -0.577876 -0.154603 0.801347
vn 0.434508 0.093244 -0.895828
vn 0.903100 0.086595 -0.420609
vn -0.174408 0.084342 -0.981055
vn -0.538258 0.064645 -0.840297
vn -0.935915 0.026504 -0.351228
vn -0.963256 0.017919 0.267987
vn -0.700889 0.042162 0.712023
vn -0.071432 0.091045 0.993282
vn 0.563455 0.079969 0.822267
vn 0.904233 0.059896 0.422818
vn 0.363640 0.122635 0.923432
vn -0.619230 -0.023425 0.784860
vn 0.110634 0.050460 0.992579
vn 0.869056 0.008885 0.494634
vn 0.120190 -0.079107 0.989594
vn -0.658668 -0.057887 0.750204
vn 0.336299 0.225123 0.914452
vn 0.784758 0.252545 0.566018
vn 0.938495 0.212323 0.272300
vn 0.943671 0.161656 -0.288708
vn 0.395898 0.144090 -0.906919
vn -0.083822 0.143833 -0.986046
vn -0.513364 0.134086 -0.847631
vn -0.882392 0.155404 -0.444111
vn -0.936746 0.222335 0.270322
vn 0.000015 -1.000000 0.000003
vn 0.000015 -1.000000 0.000003
vn 0.000015 -1.000000 0.000003
vn 0.000015 -1.000000 0.000003
vn 0.863355 -0.075548 0.498910
vn 0.888537 -0.296764 0.349906
vn 0.209897 -0.144366 0.967007
vn -0.660287 -0.047746 0.749494
vn 0.322745 0.273086 0.906234
vn -0.832851 0.236101 0.500614
vn -0.437791 0.220266 0.871678
vn 0.887722 0.091653 0.451165
vn -0.435956 0.233034 0.869274
vn -0.886508 -0.313191 -0.340611
vn -0.886508 -0.313191 -0.340611
vn -0.886508 -0.313191 -0.340611
vn -0.886508 -0.313191 -0.340611
vn 0.144796 -0.268600 -0.952307
vn 0.144796 -0.268600 -0.952307
vn 0.908530 0.235655 0.345022
vn 0.908530 0.235655 0.345022
vn -0.152731 0.227989 0.961610
vn -0.152731 0.227989 0.961610
vn 0.258993 0.271259 0.927007
vn 0.146306 0.260458 0.954336
vn 0.434653 0.280005 0.855964
vn -0.000020 -1.000000 0.000019
vn -0.000020 -1.000000 0.000019
vn -0.000020 -1.000000 0.000019
vn -0.000020 -1.000000 0.000019
vn -0.671348 -0.735108 -0.094383
vn -0.671348 -0.735108 -0.094383
vn -0.671348 -0.735108 -0.094383
vn -0.671348 -0.735108 -0.094383
vn -0.645629 0.230004 0.728191
vn -0.645629 0.230004 0.728191
vn -0.918081 -0.245053 -0.311571
vn -0.918081 -0.245053 -0.311571
vn -0.918081 -0.245053 -0.311571
vn -0.918081 -0.245053 -0.311571
vn 0.636441 -0.243950 -0.731732
vn 0.636441 -0.243950 -0.731732
vn 0.956673 -0.033657 0.289214
vn 0.956673 -0.033657 0.289214
vn 0.956673 -0.033657 0.289214
vn 0.956673 -0.033657 0.289214
vn 0.785757 -0.284800 -0.549068
vn 0.785757 -0.284800 -0.549068
vn 0.785756 -0.284800 -0.549068
vn 0.785757 -0.284800 -0.549068
vn 0.460525 0.274967 0.843985
vn 0.460525 0.274967 0.843985
vn -0.902539 0.154612 0.401893
vn -0.998602 -0.034444 -0.040098
vn -0.891611 0.223384 0.393865
vn -0.891611 0.223384 0.393865
vn -0.535119 -0.320958 -0.781430
vn -0.535119 -0.320958 -0.781430
vn -0.355082 0.160581 -0.920940
vn -0.151435 0.170145 -0.973714
vn -0.846039 0.138471 -0.514824
vn -0.905829 0.144909 0.398088
vn -0.444312 0.169156 0.879758
vn -0.146738 0.185314 0.971662
vn 0.999439 0.033504 0.000000
vn 0.999465 0.032694 0.000000
vn 0.464372 0.884760 0.039467
vn 0.464372 0.884760 0.039467
vn -0.424813 0.103696 -0.899323
vn -0.102522 0.106925 -0.988967
vn -0.976966 0.197948 0.079714
vn -0.457325 0.130302 0.879702
vn -0.085833 0.162223 0.983014
vn 0.989888 0.141853 0.000000
vn 0.989961 0.141339 0.000000
vn -0.901317 -0.100780 0.421274
vn -0.890998 -0.107888 0.441002
s 1
g pCylinder1
usemtl lambert2SG
f 42/1/1 43/2/2 32/3/3 31/4/4
f 43/2/2 44/5/5 33/6/6 32/3/3
f 44/5/5 45/7/7 34/8/8 33/6/6
f 45/7/7 46/9/9 35/10/10 34/8/8
f 46/160/9 47/11/11 36/12/12 35/161/10
f 47/11/11 48/13/13 27/14/14 36/12/12
f 48/13/13 9/15/15 28/16/16 27/14/14
s 2
f 37/17/17 38/18/18 39/19/19
s 1
f 40/20/20 41/21/21 30/22/22 29/23/23
f 41/21/21 42/1/1 31/4/4 30/22/22
s 2
f 86/24/24 87/25/25 81/26/26 23/27/27
s 5
f 96/28/28 94/29/29 95/149/30
f 20/31/31 21/32/32 14/33/33 15/151/34
s 1
f 78/35/35 68/36/36 69/37/37 12/38/38
f 12/38/38 1/39/39 77/40/40 78/35/35
f 1/39/39 2/41/41 76/42/42 77/40/40
f 2/41/41 3/43/43 75/44/44 76/42/42
f 3/43/43 4/45/45 74/46/46 75/44/44
f 4/45/45 5/47/47 73/48/48 74/46/46
f 5/163/47 6/49/49 72/50/50 73/162/48
f 71/51/51 67/52/52 7/53/53 70/115/54
s 2
f 81/26/26 70/137/55 7/124/56 23/27/27
f 11/55/57 79/111/58 80/133/59 25/58/60
s 1
f 31/4/4 32/3/3 14/155/61 13/59/62
f 32/3/3 33/6/6 15/34/63 14/155/61
f 33/6/6 34/8/8 16/60/64 15/34/63
f 34/8/8 35/10/10 17/158/65 16/60/64
f 35/161/10 36/12/12 18/62/66 17/61/65
f 36/12/12 27/14/14 19/63/67 18/62/66
f 27/14/14 28/16/16 20/148/68 19/63/67
f 28/16/16 29/23/23 21/154/69 20/148/68
f 29/23/23 30/22/22 22/64/70 21/154/69
f 30/22/22 31/4/4 13/59/62 22/64/70
f 28/16/16 26/123/71 40/20/20 29/23/23
s 2
f 26/65/72 28/122/73 39/19/19 38/18/18
f 28/122/73 9/121/74 37/17/17 39/19/19
f 26/65/72 38/18/18 59/66/75 106/67/76
s 1
f 40/20/20 26/123/71 58/120/77 50/69/78
f 50/69/78 68/36/36 78/35/35 51/70/79
f 78/35/35 77/40/40 52/71/80 51/70/79
f 77/40/40 76/42/42 53/72/81 52/71/80
f 76/42/42 75/44/44 54/73/82 53/72/81
f 75/44/44 74/46/46 55/74/83 54/73/82
f 74/46/46 73/48/48 56/159/84 55/74/83
f 73/162/48 72/50/50 57/76/85 56/75/84
s off
f 63/77/86 64/78/87 65/79/88 66/134/89
s 2
f 59/66/75 60/140/90 62/82/91 88/83/92
f 24/84/93 106/67/76 59/66/75 88/83/92
s 1
f 50/69/78 58/120/77 10/110/94 68/36/36
f 50/69/78 51/70/79 41/21/21 40/20/20
f 51/70/79 52/71/80 42/1/1 41/21/21
f 52/71/80 53/72/81 43/2/2 42/1/1
f 53/72/81 54/73/82 44/5/5 43/2/2
f 54/73/82 55/74/83 45/7/7 44/5/5
f 55/74/83 56/159/84 46/9/9 45/7/7
f 56/75/84 57/76/85 47/11/11 46/160/9
f 57/76/85 61/86/95 48/13/13 47/11/11
f 61/86/95 49/87/96 9/15/15 48/13/13
s 2
f 49/119/97 60/140/90 37/17/17 9/121/74
f 60/140/90 59/66/75 38/18/18 37/17/17
s 1
f 61/86/95 8/88/98 49/87/96
s off
f 8/114/99 62/142/100 64/78/101 63/135/102
s 2
f 62/142/91 60/81/90 65/79/103 64/78/104
f 60/81/90 49/141/97 66/118/105 65/79/106
s 1
f 49/87/96 8/88/98 63/117/107 66/80/108
f 61/86/95 57/76/85 72/50/50 71/51/51
f 72/50/50 6/49/49 67/52/52 71/51/51
f 68/36/36 79/56/109 11/116/110 69/37/37
f 61/86/95 71/51/51 70/115/54 8/88/98
f 79/56/109 68/36/36 10/110/94 104/107/111
s off
f 90/90/112 89/129/113 91/108/114 92/126/115
s 2
f 87/25/25 88/83/92 62/82/91 81/26/26
s off
f 83/94/116 82/131/117 84/96/118 85/97/119
s 1
f 8/88/98 70/115/54 82/112/120 83/113/121
s off
f 70/54/122 81/138/123 84/96/124 82/95/125
s 2
f 81/138/26 62/139/91 85/97/126 84/96/127
s off
f 62/139/128 8/136/129 83/130/130 85/97/131
s 2
f 80/133/59 87/25/25 86/24/24 25/58/60
f 24/84/93 88/83/92 87/25/25 80/133/59
s off
f 80/57/132 79/132/133 89/109/134 90/90/135
s 1
f 79/56/109 104/107/111 91/92/136 89/91/137
s 2
f 104/89/138 105/125/139 92/93/140 91/127/141
f 105/98/139 80/57/59 90/90/142 92/126/143
s 1
f 15/34/63 16/60/64 99/99/144 98/145/145
f 16/60/64 17/158/65 100/156/146 99/99/144
f 17/61/65 18/62/66 101/102/147 100/101/146
f 18/62/66 19/63/67 102/103/148 101/102/147
f 19/63/67 20/148/68 103/143/149 102/103/148
s 5
f 98/100/150 103/104/151 20/31/31 15/151/34
f 21/32/32 22/152/152 13/153/153 14/33/33
s 1
f 98/145/145 99/99/144 94/150/154 93/146/155
f 99/99/144 100/156/146 95/157/156 94/150/154
f 100/101/146 101/102/147 95/30/156
f 101/102/147 102/103/148 96/147/157 95/30/156
f 102/103/148 103/143/149 97/106/158 96/147/157
s 5
f 93/105/159 97/144/160 103/104/151 98/100/150
f 93/105/159 94/29/29 96/28/28 97/144/160
s 2
f 10/85/161 24/84/93 105/125/139 104/89/138
f 24/128/93 80/57/59 105/98/139
f 58/68/162 106/67/76 24/84/93 10/85/161
f 26/65/72 106/67/76 58/68/162
